# xmcd
#
# Track frame offsets:
#	150
#	12981
#	32748
#
# Disc length: 658 seconds
#
# Revision: 0
# Processed by: cddbd v1.5.2PL0 Copyright (c) Steve Scherf et al.
# Submitted via: audiograbber 1.83.01
#
DISCID=1a029003
DTITLE=MGM Records - Radio Comp disc 01
DYEAR=1900
DGENRE=
TTITLE0=Gran Ol´ Alaham 
TTITLE1=Love Let Her 
TTITLE2=My Life Took A Turn 
EXTD=
EXTT0=
EXTT1=
EXTT2=
PLAYORDER=
